<?xml version="1.0" encoding="UTF-8" standalone="no"?>
<!-- Created with Inkscape (http://www.inkscape.org/) -->

<svg
   xmlns:dc="http://purl.org/dc/elements/1.1/"
   xmlns:cc="http://creativecommons.org/ns#"
   xmlns:rdf="http://www.w3.org/1999/02/22-rdf-syntax-ns#"
   xmlns:svg="http://www.w3.org/2000/svg"
   xmlns="http://www.w3.org/2000/svg"
   xmlns:sodipodi="http://sodipodi.sourceforge.net/DTD/sodipodi-0.dtd"
   xmlns:inkscape="http://www.inkscape.org/namespaces/inkscape"
   width="200"
   height="120"
   id="svg2"
   version="1.1"
   inkscape:version="0.47 r22583"
   sodipodi:docname="lmfdb-logo.svg"
   inkscape:export-filename="/users/schilly/proj/lmfdb-schilly/static/images/lmfdb-logo.png"
   inkscape:export-xdpi="90"
   inkscape:export-ydpi="90">
  <defs
     id="defs4">
    <inkscape:perspective
       sodipodi:type="inkscape:persp3d"
       inkscape:vp_x="0 : 60 : 1"
       inkscape:vp_y="0 : 1000 : 0"
       inkscape:vp_z="200 : 60 : 1"
       inkscape:persp3d-origin="100 : 40 : 1"
       id="perspective15" />
    <inkscape:perspective
       id="perspective2829"
       inkscape:persp3d-origin="0.5 : 0.33333333 : 1"
       inkscape:vp_z="1 : 0.5 : 1"
       inkscape:vp_y="0 : 1000 : 0"
       inkscape:vp_x="0 : 0.5 : 1"
       sodipodi:type="inkscape:persp3d" />
  </defs>
  <sodipodi:namedview
     id="base"
     pagecolor="#c0f0c0"
     bordercolor="#666666"
     borderopacity="1.0"
     inkscape:pageopacity="0"
     inkscape:pageshadow="2"
     inkscape:zoom="2.8"
     inkscape:cx="57.951721"
     inkscape:cy="13.986314"
     inkscape:document-units="px"
     inkscape:current-layer="layer1"
     showgrid="true"
     inkscape:window-width="1276"
     inkscape:window-height="999"
     inkscape:window-x="1280"
     inkscape:window-y="0"
     inkscape:window-maximized="1">
    <inkscape:grid
       type="xygrid"
       id="grid3630"
       empspacing="5"
       visible="true"
       enabled="true"
       snapvisiblegridlinesonly="true" />
  </sodipodi:namedview>
  <metadata
     id="metadata7">
    <rdf:RDF>
      <cc:Work
         rdf:about="">
        <dc:format>image/svg+xml</dc:format>
        <dc:type
           rdf:resource="http://purl.org/dc/dcmitype/StillImage" />
        <dc:title></dc:title>
      </cc:Work>
    </rdf:RDF>
  </metadata>
  <g
     inkscape:label="Layer 1"
     inkscape:groupmode="layer"
     id="layer1"
     transform="translate(0,-932.36218)">
    <path
       id="path2820"
       style="font-size:56px;font-style:normal;font-variant:normal;font-weight:bold;font-stretch:normal;text-align:start;line-height:100%;writing-mode:lr-tb;text-anchor:start;fill:#107010;fill-opacity:1;stroke:none;font-family:FreeSans;-inkscape-font-specification:FreeSans Bold"
       d="m 19.247377,971.95017 0,33.82403 19.544,0 0,7 -27.943999,0 0,-40.82403 8.399999,0" />
    <path
       id="path2822"
       style="font-size:56px;font-style:normal;font-variant:normal;font-weight:bold;font-stretch:normal;text-align:start;line-height:100%;writing-mode:lr-tb;text-anchor:start;fill:#101070;fill-opacity:1;stroke:none;font-family:FreeSans;-inkscape-font-specification:FreeSans Bold"
       d="m 52.697752,980.96617 0,31.80803 -8.4,0 0,-40.82403 12.544,0 7.392,32.48003 7.168,-32.48003 12.656,0 0,40.82403 -8.4,0 0,-31.80803 -7.224,31.80803 -8.4,0 -7.336,-31.80803" />
    <path
       id="path2824"
       style="font-size:56px;font-style:normal;font-variant:normal;font-weight:bold;font-stretch:normal;text-align:start;line-height:100%;writing-mode:lr-tb;text-anchor:start;fill:#3b5030;fill-opacity:1;stroke:none;font-family:FreeSans;-inkscape-font-specification:FreeSans Bold"
       d="m 99.848877,995.19017 0,17.58403 -8.4,0 0,-40.82403 28.672003,0 0,7 -20.272003,0 0,9.24 17.864003,0 0,7 -17.864003,0" />
    <path
       id="path2826"
       style="font-size:56px;font-style:normal;font-variant:normal;font-weight:bold;font-stretch:normal;text-align:start;line-height:100%;writing-mode:lr-tb;text-anchor:start;fill:#401b10;fill-opacity:1;stroke:none;font-family:FreeSans;-inkscape-font-specification:FreeSans Bold"
       d="m 125.85125,1012.7742 0,-40.82403 15.96,0 c 3.13598,0 5.71198,0.3734 7.728,1.12 2.05331,0.7467 3.77064,1.9414 5.152,3.584 3.32263,3.9573 4.98396,9.184 4.984,15.68 -4e-5,6.5707 -1.66137,11.79733 -4.984,15.68003 -2.65069,3.1733 -6.94402,4.76 -12.88,4.76 l -15.96,0 m 8.4,-7 7.56,0 c 6.30931,0 9.46397,-4.4613 9.464,-13.38403 -3e-5,-8.96 -3.15469,-13.44 -9.464,-13.44 l -7.56,0 0,26.82403" />
    <path
       id="path2828"
       style="font-size:56px;font-style:normal;font-variant:normal;font-weight:bold;font-stretch:normal;text-align:start;line-height:100%;writing-mode:lr-tb;text-anchor:start;fill:#706910;fill-opacity:1;stroke:none;font-family:FreeSans;-inkscape-font-specification:FreeSans Bold"
       d="m 199.304,1001.0142 c -3e-5,1.344 -0.22403,2.6507 -0.672,3.92 -0.44803,1.2693 -1.17603,2.52 -2.184,3.752 -0.9707,1.232 -2.44536,2.2213 -4.424,2.968 -1.97869,0.7466 -4.33069,1.12 -7.056,1.12 l -18.368,0 0,-40.82403 18.2,0 c 2.53864,0 4.72264,0.3734 6.552,1.12 1.86664,0.7467 3.24797,1.7174 4.144,2.912 0.9333,1.1574 1.6053,2.296 2.016,3.416 0.41063,1.12 0.61597,2.2213 0.616,3.304 -3e-5,1.7547 -0.42937,3.2667 -1.288,4.536 -0.8587,1.2693 -2.29603,2.5573 -4.312,3.864 4.5173,2.6507 6.77597,5.9547 6.776,9.91203 M 175,978.95017 l 0,9.24 9.128,0 c 3.95731,0 5.93597,-1.5307 5.936,-4.592 -3e-5,-3.0987 -1.97869,-4.648 -5.936,-4.648 l -9.128,0 m 0,16.24 0,10.58403 10.024,0 c 4.14398,0 6.21597,-1.7547 6.216,-5.264 -3e-5,-3.54673 -2.07202,-5.32003 -6.216,-5.32003 l -10.024,0" />
    <path
       id="path3636-8"
       style="fill:none;stroke:#000000;stroke-width:3;stroke-linecap:round;stroke-linejoin:miter;stroke-miterlimit:4;stroke-opacity:1;stroke-dasharray:none"
       d="m 180,937.36218 c -17.53774,15.9889 -42.20769,22.82157 -65.48231,21.31712 C 101.68948,957.8501 85.141746,952.05973 75,947.36218 c -14.503604,-6.71792 -34.644661,-9.14214 -45,-5 -14.644661,5.85786 -25,19.51128 -25,50 0.7398084,34.99222 10.355339,39.14222 25,45.00002 10.355339,4.1422 30.496396,1.7179 45,-5 10.141746,-4.6975 26.68948,-10.4879 39.51769,-11.3171 23.27462,-1.5045 47.94457,5.3282 65.48231,21.3171"
       sodipodi:nodetypes="cssscsssc"
       inkscape:export-xdpi="99.999985"
       inkscape:export-ydpi="99.999985" />
  </g>
</svg>
