<svg width="48" height="9.4" version="1.1" viewBox="0 -511 2656 522" xmlns="http://www.w3.org/2000/svg" xmlns:xlink="http://www.w3.org/1999/xlink"><defs><path id="f" d="M52 289q7 42 54 97t116 56q35 0 64-18t43-45q42 63 101 63 37 0 64-22t28-59q0-29-14-47t-27-22-23-4q-19 0-31 11t-12 29q0 46 50 63-11 13-40 13-13 0-19-2-38-16-56-66-60-221-60-258 0-28 16-40t35-12q37 0 73 33t49 81q3 10 6 11t16 2h4q15 0 15-8 0-1-2-11-16-57-62-101T333-11q-70 0-106 63-41-62-94-62h-6q-49 0-70 26T35 71q0 32 19 52t45 20q43 0 43-42 0-20-12-35t-23-20-13-5l-3-1q0-1 6-4t16-7 19-3q36 0 62 45 9 16 23 68t28 108 16 66q5 27 5 39 0 28-15 40t-34 12q-40 0-75-32t-49-82q-2-9-5-10t-16-2H58q-6 6-6 11z"/><path id="e" d="M56 237v13l14 20h765q-116 87-143 223v3q0 2-1 3 0 12 17 12h3q9 0 12-1t6-4 3-9 3-16 8-25q22-67 73-120t119-75q9-3 9-11 0-6-5-9t-24-10-38-19q-41-26-71-60t-45-67-21-50-8-31q-2-10-5-12t-16-3q-20 0-20 11 0 7 5 25 32 126 139 205H70q-14 7-14 20z"/><path id="d" d="M201 0q-12 3-99 3-76 0-85-3h-6v46h14q23 1 42 6t29 9 25 17 18 18 21 26 20 28l46 60-58 78q-9 13-19 27t-16 21-11 15-9 12-6 7-7 6-6 3-6 2-8 2q-6 0-36 2H16v46h7q36-2 103-2 93 0 103 2h8v-46q-36-4-36-16 0-2 10-16t28-38 29-41l4-4 25 34q32 41 32 54 0 6-2 11t-5 7-5 4-7 4l-3 1h-5v46h7q15-3 99-3 79 0 85 3h6v-46h-7q-49 0-81-17-17-8-34-27t-65-84l-16-21 62-85q66-90 71-94t17-7q18-4 53-4h17V0h-14q-8 1-20 1t-25 1-25 0-18 1h-37q-26 0-50-2l-23-1h-9v46h3q11 0 22 5t11 12q0 2-40 57l-41 55q-1-1-31-42t-34-45q-4-5-4-14 0-11 7-19t18-9q2 0 2-23V0h-7z"/></defs><g fill="currentColor" stroke="currentColor" stroke-width="0" data-mml-node="math"><use transform="scale(1 -1)" data-mml-node="mi" xlink:href="#f"/><use transform="matrix(1 0 0 -1 850 0)" data-mml-node="mo" xlink:href="#e"/><g data-mml-node="TeXAtom"><use transform="matrix(1 0 0 -1 2128 0)" data-mml-node="mtext" xlink:href="#d"/></g></g></svg>
